<svg width="302" height="75" viewBox="0 0 302 75" fill="none" xmlns="http://www.w3.org/2000/svg">
<path d="M122.682 58L114.569 19.1912H122.828L130.977 54.7842L129.113 54.8573L134.193 19.1912H145.886L138.139 58H122.682ZM95.7128 58L87.9657 19.1912H99.6595L104.739 54.8573L102.912 54.7842L110.988 19.1912H119.247L111.207 58H95.7128ZM150.844 58V19.1912H162.063V58H150.844ZM156.435 12.8693C154.681 12.8693 153.147 12.4064 151.831 11.4807C150.54 10.5549 149.894 9.25153 149.894 7.57055C149.894 5.8652 150.54 4.54965 151.831 3.6239C153.147 2.69814 154.681 2.23526 156.435 2.23526C158.214 2.23526 159.749 2.69814 161.04 3.6239C162.355 4.54965 163.013 5.8652 163.013 7.57055C163.013 9.27589 162.355 10.5914 161.04 11.5172C159.749 12.4186 158.214 12.8693 156.435 12.8693ZM186.636 58.877C183.396 58.877 180.411 58.1096 177.683 56.5748C174.954 55.0156 172.762 52.7134 171.105 49.6682C169.449 46.6229 168.62 42.8712 168.62 38.4129C168.62 34.1495 169.461 30.5318 171.142 27.5596C172.847 24.5874 175.064 22.334 177.793 20.7991C180.545 19.24 183.493 18.4604 186.636 18.4604C189.706 18.4604 192.507 19.24 195.041 20.7991C197.599 22.3583 199.645 24.49 201.18 27.1942C202.715 29.874 203.482 32.968 203.482 36.4761C203.482 36.5979 203.482 36.7197 203.482 36.8416C203.482 36.939 203.482 37.0486 203.482 37.1704L198.586 37.2435C198.586 37.1704 198.586 37.0974 198.586 37.0243C198.586 36.9268 198.586 36.8416 198.586 36.7685C198.586 34.9413 198.147 33.37 197.27 32.0544C196.393 30.7389 195.26 29.7278 193.872 29.0213C192.483 28.2905 191.033 27.925 189.523 27.925C187.014 27.925 184.845 28.7655 183.018 30.4465C181.191 32.1031 180.277 34.7586 180.277 38.4129C180.277 42.0672 181.191 44.7592 183.018 46.4889C184.87 48.1943 187.038 49.0469 189.523 49.0469C191.082 49.0469 192.556 48.6815 193.945 47.9507C195.333 47.1954 196.454 46.1357 197.307 44.7714C198.159 43.4071 198.586 41.7992 198.586 39.9477L203.482 40.2035C203.482 43.6873 202.727 46.8422 201.217 49.6682C199.731 52.4698 197.709 54.7111 195.151 56.3921C192.617 58.0487 189.779 58.877 186.636 58.877ZM198.586 58V0.883164H209.95V58H198.586ZM245.374 53.3956C247.761 53.6392 249.844 54.1021 251.623 54.7842C253.425 55.442 254.826 56.4286 255.825 57.7442C256.824 59.0354 257.323 60.7651 257.323 62.9333C257.323 65.4426 256.495 67.5743 254.838 69.3284C253.206 71.1068 250.807 72.4589 247.64 73.3846C244.472 74.3104 240.635 74.7733 236.128 74.7733C229.478 74.7733 224.325 73.811 220.671 71.8864C217.041 69.9861 215.226 67.4403 215.226 64.2489C215.226 63.3475 215.323 62.5313 215.518 61.8005C215.737 61.094 216.005 60.4849 216.322 59.9733L226.627 61.4716C226.505 61.6421 226.371 61.8979 226.225 62.239C226.103 62.6044 226.043 63.0551 226.043 63.5911C226.043 64.8823 227.005 65.8446 228.929 66.478C230.878 67.1114 233.388 67.4281 236.457 67.4281C238.626 67.4281 240.477 67.2698 242.012 66.9531C243.571 66.6607 244.753 66.2222 245.557 65.6375C246.385 65.0528 246.799 64.3829 246.799 63.6276C246.799 62.5313 246.263 61.8127 245.191 61.4716C244.144 61.1305 242.925 60.8869 241.537 60.7407L226.846 59.2425C224.142 58.9745 221.901 58.1949 220.123 56.9037C218.344 55.6125 217.455 53.8706 217.455 51.678C217.455 50.3138 217.833 49.0713 218.588 47.9507C219.343 46.8056 220.208 45.8677 221.182 45.1368C222.157 44.3816 222.973 43.9066 223.631 43.7117L229.405 46.6351C228.942 46.7082 228.393 47.0005 227.76 47.5121C227.151 48.0237 226.846 48.6206 226.846 49.3027C226.846 49.9849 227.188 50.5696 227.87 51.0568C228.576 51.5441 229.855 51.8729 231.707 52.0435L245.374 53.3956ZM249.211 19.1912H259.187L255.131 34.1008C254.376 36.9268 253.255 39.4483 251.769 41.6652C250.283 43.8578 248.297 45.5875 245.812 46.8544C243.352 48.1212 240.246 48.7546 236.494 48.7546C232.547 48.7546 229.124 48.1455 226.225 46.9274C223.351 45.7093 221.134 43.9918 219.574 41.7749C218.015 39.5336 217.236 36.8903 217.236 33.845C217.236 30.7998 218.027 28.1199 219.611 25.8055C221.219 23.4911 223.399 21.6884 226.152 20.3972C228.929 19.106 232.072 18.4604 235.58 18.4604C238.236 18.4604 240.66 18.8989 242.852 19.7759C245.069 20.6286 246.848 21.7614 248.188 23.1744C249.552 24.5874 250.258 26.1466 250.307 27.852L248.224 28.4001L249.211 19.1912ZM236.421 40.4593C238.029 40.4593 239.442 40.2035 240.66 39.6919C241.878 39.156 242.828 38.3885 243.51 37.3897C244.192 36.3665 244.533 35.1362 244.533 33.6989C244.533 32.2859 244.192 31.0799 243.51 30.0811C242.828 29.0822 241.878 28.3148 240.66 27.7789C239.442 27.2429 238.029 26.9749 236.421 26.9749C234.886 26.9749 233.497 27.2551 232.255 27.8154C231.037 28.3514 230.074 29.131 229.368 30.1542C228.661 31.153 228.308 32.3711 228.308 33.8085C228.308 35.2215 228.649 36.4274 229.331 37.4262C230.014 38.4007 230.964 39.156 232.182 39.6919C233.4 40.2035 234.813 40.4593 236.421 40.4593ZM267.911 74.7733C266.693 74.7733 265.596 74.7246 264.622 74.6271C263.672 74.554 263.075 74.4687 262.831 74.3713V65.7837C263.148 65.9298 263.696 66.0395 264.476 66.1126C265.28 66.21 266.132 66.2587 267.034 66.2587C268.227 66.2587 269.299 66.0151 270.249 65.5279C271.224 65.065 272.052 64.395 272.734 63.518C273.441 62.6653 273.989 61.6543 274.379 60.4849L275.037 58.5116L261.662 19.1912H273.465L281.907 51.0203H280.591L288.704 19.1912H300.361L287.023 59.9368C286.024 63.0064 284.794 65.6497 283.332 67.8666C281.87 70.0836 279.921 71.7889 277.485 72.9827C275.049 74.1764 271.857 74.7733 267.911 74.7733Z" fill="white"/>
<rect x="3.33422" y="3.93139" width="65.1154" height="65.1154" rx="32.5577" stroke="url(#paint0_linear_14_280)" stroke-width="6.66845"/>
<path d="M58.5072 27.8044C58.6344 27.4581 58.6916 27.0774 58.6192 26.7108C58.547 26.3445 58.3547 26.025 58.07 25.8118C57.7854 25.5985 57.4247 25.5038 57.0528 25.5375C56.6807 25.5711 56.3315 25.733 56.0348 25.9524C56.0348 25.9524 56.0348 25.9524 56.0348 25.9524C55.065 26.6746 54.1227 27.4174 53.2078 28.1807C49.5483 31.234 46.3283 34.6166 43.5478 38.3284C42.2241 40.0956 40.9114 41.871 39.6097 43.6548L46.1661 43.6952C43.0418 39.5261 39.8553 35.4025 36.6066 31.3242C35.0678 29.0258 32.3324 29.1871 30.6617 31.3916C27.9112 35.7224 25.2218 40.0957 22.5937 44.5116L26.8995 44.1941C24.1801 41.6879 21.4326 39.2082 18.657 36.755C17.7846 35.9839 16.9094 35.2154 16.0314 34.4496C15.736 34.1922 15.3574 34.035 14.9603 34.0301C14.5633 34.0251 14.183 34.1703 13.8991 34.4376C13.6151 34.7049 13.4472 35.0757 13.4282 35.4722C13.409 35.8689 13.543 36.2563 13.782 36.5668C13.782 36.5668 13.782 36.5668 13.782 36.5668C14.4934 37.4895 15.2075 38.4095 15.9244 39.327C18.2053 42.2459 20.5142 45.1384 22.8513 48.0044C24.2514 49.2964 26.1818 49.3234 27.1571 47.6869C30.3842 43.6877 33.55 39.6459 36.6547 35.5616L30.7098 35.629C33.6043 39.9658 36.561 44.2572 39.5798 48.5033C41.3822 50.9099 44.3631 50.9719 46.1362 48.5437C47.4821 46.7931 48.8169 45.0342 50.1407 43.267C52.9212 39.5552 55.2621 35.5142 57.1635 31.1439C57.6389 30.0513 58.0868 28.9381 58.5072 27.8044Z" fill="url(#paint1_linear_14_280)"/>
<defs>
<linearGradient id="paint0_linear_14_280" x1="35.8919" y1="0.597168" x2="35.8919" y2="72.3811" gradientUnits="userSpaceOnUse">
<stop stop-color="#3872D5"/>
<stop offset="1" stop-color="#51C3D3"/>
</linearGradient>
<linearGradient id="paint1_linear_14_280" x1="36.0889" y1="26.8784" x2="36.0889" y2="46.0992" gradientUnits="userSpaceOnUse">
<stop stop-color="#3872D5"/>
<stop offset="1" stop-color="#51C3D3"/>
</linearGradient>
</defs>
</svg>
